HIERARCHY
ROOT root
{
	OFFSET	0	13.1	24.9
	CHANNELS 6  Xposition Yposition Zposition Xrotation Yrotation Zrotation
	JOINT spine_1
	{
		OFFSET	0	9.99999	0
		CHANNELS 3  Xrotation Yrotation Zrotation
		JOINT spine_2
		{
			OFFSET	0	112	-10
			CHANNELS 3  Xrotation Yrotation Zrotation
			JOINT spine_3
			{
				OFFSET	0	206.5	19.3
				CHANNELS 3  Xrotation Yrotation Zrotation
				JOINT spine_4
				{
					OFFSET	0	110.4	14.6
					CHANNELS 3  Xrotation Yrotation Zrotation
					JOINT neck_1
					{
						OFFSET	0	71.8	-50.3
						CHANNELS 3  Xrotation Yrotation Zrotation
						JOINT neck_2
						{
							OFFSET	0	86.2	-25.8
							CHANNELS 3  Xrotation Yrotation Zrotation
							JOINT head_ee
							{
								OFFSET	0	179.8	-8.7
								CHANNELS 3  Xrotation Yrotation Zrotation
								End Site
								{
									OFFSET	1	0	0
								}
							}
						}
					}
					JOINT left_clavicle
					{
						OFFSET	-43.2	22.4	-70.8
						CHANNELS 3  Xrotation Yrotation Zrotation
						JOINT left_shoulder
						{
							OFFSET	-93.9	-5.79999	48.7
							CHANNELS 3  Xrotation Yrotation Zrotation
							JOINT left_elbow
							{
								OFFSET	-291.4	-30.8	15.2
								CHANNELS 3  Xrotation Yrotation Zrotation
								JOINT left_lowarm_twist
								{
									OFFSET	-110.7	-3.89999	13.6
									CHANNELS 3  Xrotation Yrotation Zrotation
									JOINT left_hand
									{
										OFFSET	-110.7	-3.89999	13.6
										CHANNELS 3  Xrotation Yrotation Zrotation
										JOINT left_ee
										{
											OFFSET	-80.8	-5.10001	12.1
											CHANNELS 3  Xrotation Yrotation Zrotation
											End Site
											{
												OFFSET	1	0	0
											}
										}
									}
								}
							}
						}
					}
					JOINT right_clavicle
					{
						OFFSET	43.2	22.4	-70.8
						CHANNELS 3  Xrotation Yrotation Zrotation
						JOINT right_shoulder
						{
							OFFSET	93.9	-5.79999	48.7
							CHANNELS 3  Xrotation Yrotation Zrotation
							JOINT right_elbow
							{
								OFFSET	291.4	-30.8	15.2
								CHANNELS 3  Xrotation Yrotation Zrotation
								JOINT right_lowarm_twist
								{
									OFFSET	110.7	-3.89999	13.6
									CHANNELS 3  Xrotation Yrotation Zrotation
									JOINT right_hand
									{
										OFFSET	110.7	-3.89999	13.6
										CHANNELS 3  Xrotation Yrotation Zrotation
										JOINT right_ee
										{
											OFFSET	80.8	-5.10001	12.1
											CHANNELS 3  Xrotation Yrotation Zrotation
											End Site
											{
												OFFSET	1	0	0
											}
										}
									}
								}
							}
						}
					}
				}
			}
		}
	}
	JOINT left_hip
	{
		OFFSET	-82.8	-127.5	0.300001
		CHANNELS 3  Xrotation Yrotation Zrotation
		JOINT left_knee
		{
			OFFSET	-28.2	-396.7	2.2
			CHANNELS 3  Xrotation Yrotation Zrotation
			JOINT left_ankle
			{
				OFFSET	-11.7	-411.3	35.4
				CHANNELS 3  Xrotation Yrotation Zrotation
				JOINT left_toes
				{
					OFFSET	0	-60	-88.6
					CHANNELS 3  Xrotation Yrotation Zrotation
					JOINT left_foot_ee
					{
						OFFSET	-22.5	-16.5	-42.2
						CHANNELS 3  Xrotation Yrotation Zrotation
						End Site
						{
							OFFSET	1	0	0
						}
					}
				}
			}
		}
	}
	JOINT right_hip
	{
		OFFSET	82.8	-127.5	0.300001
		CHANNELS 3  Xrotation Yrotation Zrotation
		JOINT right_knee
		{
			OFFSET	28.2	-396.7	2.2
			CHANNELS 3  Xrotation Yrotation Zrotation
			JOINT right_ankle
			{
				OFFSET	11.7	-411.3	35.4
				CHANNELS 3  Xrotation Yrotation Zrotation
				JOINT right_toes
				{
					OFFSET	0	-60	-88.6
					CHANNELS 3  Xrotation Yrotation Zrotation
					JOINT right_foot_ee
					{
						OFFSET	22.5	-16.5	-42.2
						CHANNELS 3  Xrotation Yrotation Zrotation
						End Site
						{
							OFFSET	1	0	0
						}
					}
				}
			}
		}
	}
}
MOTION
Frames: 11
Frame Time: 0.02
2021.28 664.665 -1510.16 -8.24159 68.9426 3.68337 1.19553 0.562513 4.56275 1.20707 0.271346 4.58923 1.23085 -0.602476 4.55766 1.2019 0.124094 4.59555 -7.54228 16.2708 -8.12844 -7.34939 36.0391 -4.64599 -0.0 0.0 -0.0 -9.71753 20.9428 -11.9382 -16.3436 0.556293 80.5107 0.789594 -21.3624 0.14893 -28.7411 -1.84092 3.14055 1.6124 17.0662 17.0463 -0.0 0.0 -0.0 12.7432 19.0527 -25.7127 10.0827 43.0203 -65.8391 1.92094 43.5742 -0.767881 -68.2024 6.31685 -5.2825 -5.67827 -28.1823 20.3173 0.0 0.0 0.0 29.4936 11.2024 -8.44465 0.869147 -0.0367647 -0.128307 0.650148 20.0693 -0.0970038 -32.5375 0.0 0.0 -0.0 0.0 -0.0 -8.98123 13.1061 5.16387 -27.2842 -0.138468 -4.14538 34.783 1.76281 4.41341 11.4438 -0.0 -0.0 0.0 0.0 0.0 
1997.13 662.713 -1505.24 -8.89958 68.3448 4.36291 1.26111 0.823097 4.31624 1.27131 0.547043 4.35976 1.315 -0.280942 4.38491 1.28842 0.414418 4.37433 -5.4344 16.6342 -8.18305 -4.85292 36.6818 -5.45031 -0.0 0.0 -0.0 -9.5678 20.5204 -11.8738 -15.0427 -0.0618337 80.3214 0.775223 -21.0079 0.143736 -29.1376 -1.87682 3.17655 1.6843 17.2442 17.5655 -0.0 0.0 -0.0 12.8814 18.9346 -26.0411 8.3664 42.8782 -65.0763 1.8945 43.1779 -0.749721 -68.7892 6.39161 -5.28975 -5.88242 -28.0986 21.5967 0.0 0.0 0.0 29.4914 11.0994 -8.9941 -1.21987 0.048303 0.180971 -3.50751 21.1195 0.529984 -34.0314 0.0 0.0 -0.0 0.0 -0.0 -9.90451 13.1724 5.86773 -27.9552 -0.116938 -4.24611 37.0365 0.609031 4.61648 11.4822 -0.0 -0.0 0.0 0.0 0.0 
1973.15 666.302 -1499.57 -9.9097 68.229 5.8074 1.36252 0.856514 4.15536 1.37193 0.590601 4.20133 1.41697 -0.200695 4.23782 1.39222 0.470501 4.21644 -3.62586 16.3404 -9.06492 -2.64419 36.7046 -7.14869 -0.0 0.0 -0.0 -9.50256 20.0391 -11.9625 -14.0937 -0.581254 80.3104 0.812429 -21.9224 0.157351 -29.2512 -1.88715 3.18681 1.74526 17.1766 17.9373 -0.0 0.0 -0.0 12.7501 18.9033 -25.738 6.28545 42.5064 -64.9137 1.82058 42.042 -0.699671 -68.8894 6.40437 -5.29091 -5.82093 -28.0589 21.2626 0.0 0.0 0.0 30.0685 10.9376 -9.40748 -4.3999 0.155986 0.657071 -3.05147 21.731 0.461803 -34.0536 0.0 0.0 -0.0 0.0 -0.0 -10.7611 13.1068 6.36324 -27.488 -0.132054 -4.176 35.4365 -0.114275 4.46032 9.54089 -0.0 -0.0 0.0 0.0 0.0 
1944.86 673.399 -1494.29 -10.1483 67.6664 6.17175 1.4384 1.01229 3.99261 1.44695 0.756395 4.04881 1.50204 -0.00284185 4.11874 1.47895 0.647126 4.06767 -2.91837 17.5568 -6.54232 -1.97821 36.9637 -4.53928 -0.0 0.0 -0.0 -9.9493 20.9595 -12.2944 -13.4783 -2.61648 80.912 0.939062 -24.9467 0.207731 -29.3733 -1.89828 3.19783 1.71044 16.5683 17.519 -0.0 0.0 -0.0 12.7272 19.5484 -25.6429 4.53655 42.0922 -64.9658 1.55078 37.5293 -0.526891 -67.1246 6.17973 -5.26719 -5.65817 -29.0675 19.4914 0.0 0.0 0.0 29.5946 10.7599 -9.39442 -8.36498 0.252968 1.25771 -2.74859 16.6426 0.408816 -34.0934 0.0 0.0 -0.0 0.0 -0.0 -12.8961 12.8162 7.48357 -23.2401 -0.243109 -3.53371 33.6735 1.24049 4.29937 7.10877 -0.0 -0.0 0.0 0.0 0.0 
1912.45 682.865 -1484.97 -10.7632 67.5777 6.84065 1.48531 0.836506 3.91442 1.49365 0.585926 3.95962 1.53542 -0.152022 3.99979 1.51342 0.481068 3.9737 -2.44041 17.7805 -6.18842 -1.43199 37.048 -4.31131 -0.0 0.0 -0.0 -11.1718 24.3798 -12.6486 -8.96461 -5.69845 80.0748 1.2103 -30.9434 0.335014 -29.0276 -1.86683 3.16659 1.69645 15.6194 17.1218 -0.0 0.0 -0.0 12.43 19.1312 -24.9826 1.32828 41.4508 -65.0524 1.52418 37.0515 -0.51077 -67.2785 6.19929 -5.26954 -5.7649 -27.5031 21.3798 0.0 0.0 0.0 29.209 11.1292 -8.58937 -12.5245 0.309799 1.89328 3.61505 16.1653 -0.529179 -35.0662 0.0 0.0 -0.0 0.0 -0.0 -13.8793 12.7037 7.96484 -22.0284 -0.266027 -3.34919 30.4372 -3.05193 3.94012 6.96594 -0.0 -0.0 0.0 0.0 0.0 
1887.05 688.294 -1480.04 -9.63576 67.6414 5.50479 1.51701 0.838251 3.93866 1.52544 0.586129 3.98392 1.56741 -0.154045 4.02379 1.54515 0.482853 3.99773 -0.41091 16.4108 -4.81398 0.617386 33.2448 -3.60524 -0.0 0.0 -0.0 -11.6301 24.6407 -13.2042 -8.67337 -3.90095 81.2378 1.36314 -34.0278 0.417135 -29.7646 -1.9341 3.23295 0.648311 17.9288 11.264 -0.0 0.0 -0.0 12.3258 20.5383 -24.644 -1.26268 41.0631 -65.3107 1.42775 35.2684 -0.453869 -63.1806 5.68075 -5.18914 -5.47988 -28.9875 18.5252 0.0 0.0 0.0 27.3559 11.0006 -7.4147 -14.0321 0.318985 2.12441 8.15386 15.1841 -1.17541 -33.6614 0.0 0.0 -0.0 0.0 -0.0 -16.1225 18.3917 6.82153 -22.0378 -0.265864 -3.35061 36.5571 -8.38397 4.55331 4.72718 -0.0 -0.0 0.0 0.0 0.0 
1862.27 685.37 -1480.74 -9.14431 69.1825 5.07268 1.69699 0.779484 3.90169 1.7053 0.529828 3.94329 1.74247 -0.189911 3.97415 1.7207 0.439613 3.95435 -0.133539 17.6974 -3.70539 0.966095 34.6299 -2.37827 -0.0 0.0 -0.0 -12.1932 24.9309 -13.8987 -8.48157 -6.36998 80.383 1.65037 -39.2644 0.588753 -29.8079 -1.93808 3.23683 1.01644 16.3234 13.0018 -0.0 0.0 -0.0 12.2891 19.4134 -24.6392 -3.09327 40.3659 -65.9627 1.35421 33.8535 -0.41215 -63.679 5.74352 -5.2009 -4.92206 -25.7764 17.6686 0.0 0.0 0.0 26.6194 10.0844 -6.97155 -15.8827 0.321944 2.40832 10.8673 13.3216 -1.54708 -33.4802 0.0 0.0 -0.0 0.0 -0.0 -14.0287 12.4511 6.01166 -25.7995 -0.181903 -3.92167 36.1631 -5.17223 4.51002 4.91068 -0.0 -0.0 0.0 0.0 0.0 
1832.9 684.855 -1476.2 -7.15655 71.6652 3.25834 1.79261 0.582119 3.78924 1.80053 0.34 3.81855 1.82346 -0.349119 3.81772 1.80322 0.257746 3.82497 -0.3355 16.7358 -3.99969 0.656006 33.1708 -2.70252 -0.0 0.0 -0.0 -12.6577 25.3289 -14.3855 -4.72669 -8.75261 80.3464 1.78419 -41.4676 0.675438 -29.8412 -1.94114 3.23981 0.77824 16.2691 11.4821 -0.0 0.0 -0.0 11.8175 19.0855 -23.5776 -5.84434 39.1858 -66.1638 1.27427 32.2602 -0.368538 -61.6799 5.49239 -5.1504 -4.81738 -26.5431 16.5045 0.0 0.0 0.0 24.9248 10.5817 -6.00008 -17.4187 0.317435 2.64393 12.0446 7.23264 -1.69964 -33.2542 0.0 0.0 -0.0 0.0 -0.0 -13.8734 13.936 5.82065 -31.2555 0.0060666 -4.73759 36.9561 -6.66891 4.58565 3.19527 -0.0 -0.0 0.0 0.0 0.0 
1808.97 693.696 -1473.23 -4.98787 72.6794 0.911702 1.55368 0.471209 3.76566 1.56154 0.230812 3.78797 1.57746 -0.467491 3.76613 1.55769 0.132722 3.79267 -2.33783 18.0618 -1.88968 -1.64937 34.2493 0.326901 -0.0 0.0 -0.0 -12.7952 25.0397 -14.7463 -1.72756 -9.63759 80.346 1.94813 -43.9762 0.78669 -29.0713 -1.8708 3.17055 0.800612 16.3612 11.6554 -0.0 0.0 -0.0 11.7888 18.9305 -23.5218 -8.76151 38.1247 -67.0659 1.20177 30.7651 -0.33064 -60.0772 5.29236 -5.10358 -4.68253 -26.8762 15.4869 0.0 0.0 0.0 22.1135 10.6604 -4.50375 -18.3734 0.311451 2.79029 16.6916 3.52032 -2.31776 -32.9535 0.0 0.0 -0.0 0.0 -0.0 -11.9782 14.942 4.79276 -35.1959 0.189751 -5.31414 37.9421 -9.65625 4.68909 1.91649 -0.0 -0.0 0.0 0.0 0.0 
1783.94 698.208 -1467.55 -3.96382 73.5947 -0.225628 1.5192 0.323384 3.75919 1.52705 0.083696 3.77212 1.53312 -0.612393 3.72309 1.51379 -0.0171504 3.77301 -3.31844 18.3187 -1.1402 -2.78592 34.3208 1.46018 -0.0 0.0 -0.0 -12.8672 24.4085 -15.1939 0.572477 -10.5653 80.3669 2.06164 -45.5976 0.866659 -28.668 -1.83432 3.13389 0.725601 16.3932 11.1963 -0.0 0.0 -0.0 11.6792 19.0367 -23.2645 -11.335 37.4388 -67.3614 1.15077 29.6846 -0.304964 -58.9563 5.15325 -5.0675 -4.63875 -27.3264 14.9219 0.0 0.0 0.0 19.951 10.6759 -3.21867 -19.0134 0.306074 2.88834 21.0702 -0.670452 -2.88841 -32.6967 0.0 0.0 -0.0 0.0 -0.0 -10.6991 15.9099 4.42877 -38.1899 0.355647 -5.74321 37.7299 -11.0084 4.67926 0.556961 -0.0 -0.0 0.0 0.0 0.0 
1768.45 698.497 -1463.75 -1.40357 74.1852 -2.91631 1.30447 0.225528 3.74094 1.31225 -0.0128043 3.7477 1.31228 -0.717131 3.67857 1.29343 -0.127596 3.74555 -4.53366 18.2255 -1.05629 -4.17576 34.2973 1.92116 -0.0 0.0 -0.0 -12.8706 24.0618 -15.3847 2.78349 -12.5711 80.3096 2.06579 -45.6552 0.869628 -28.2967 -1.80098 3.09992 0.729326 16.115 11.1197 -0.0 0.0 -0.0 11.5524 18.8307 -22.9883 -13.4657 36.7417 -67.8107 1.09341 28.4411 -0.277101 -58.0922 5.04648 -5.03783 -4.65409 -27.9521 14.5743 0.0 0.0 0.0 17.742 10.6387 -1.90263 -19.6581 0.299549 2.98705 26.4415 -4.01717 -3.55552 -32.0011 0.0 0.0 -0.0 0.0 -0.0 -8.7022 16.7901 4.07268 -40.5178 0.500036 -6.07061 36.4809 -12.56 4.57541 -1.23339 0.0 0.0 0.0 0.0 0.0 
